<?xml version="1.0" encoding="utf-8"?>
<!-- Generator: Adobe Illustrator 23.0.1, SVG Export Plug-In . SVG Version: 6.00 Build 0)  -->
<svg version="1.1" id="Layer_1" xmlns="http://www.w3.org/2000/svg" xmlns:xlink="http://www.w3.org/1999/xlink" x="0px" y="0px"
	 viewBox="0 0 78.2 17.2" style="enable-background:new 0 0 78.2 17.2;" xml:space="preserve">
<style type="text/css">
	.st0{clip-path:url(#SVGID_2_);fill:#3C2869;}
	.st1{opacity:0.5;clip-path:url(#SVGID_2_);}
	.st2{clip-path:url(#SVGID_4_);fill:#3C2869;}
</style>
<g>
	<defs>
		<rect id="SVGID_1_" x="-6.9" y="-6.9" width="93" height="32"/>
	</defs>
	<clipPath id="SVGID_2_">
		<use xlink:href="#SVGID_1_"  style="overflow:visible;"/>
	</clipPath>
	<path class="st0" d="M50.3,10.5v2.3h-1.2V6.4h2.6c1.4,0,2,0.6,2,2c0,1.4-0.8,2-2,2H50.3z M51.8,9.5c0.4,0,0.6-0.2,0.6-0.6V8
		c0-0.4-0.2-0.6-0.6-0.6h-1.5v2H51.8z"/>
	<polygon class="st0" points="54.4,8 57.1,8 57.1,8.9 55.6,8.9 55.6,12.8 54.4,12.8 	"/>
	<path class="st0" d="M58.9,7.4h-1.2v-1h1.2V7.4z M57.7,8h1.2v4.8h-1.2V8z"/>
	<polygon class="st0" points="61.7,11.5 62.8,8 64.1,8 62.4,12.8 61.1,12.8 59.4,8 60.7,8 61.7,11.5 	"/>
	<path class="st0" d="M66.9,9.5c0-0.5-0.3-0.7-0.8-0.7c-0.5,0-0.8,0.2-0.8,0.7h-1.2c0-1,0.9-1.6,2-1.6c1.1,0,1.9,0.6,1.9,1.6v2.4
		h0.8v0.9h-1.9l0-0.7h0c-0.3,0.5-0.7,0.9-1.4,0.9c-0.9,0-1.5-0.6-1.5-1.5c0-0.8,0.6-1.4,1.6-1.5l1.3-0.1V9.5z M66.9,10.9v-0.2
		l-1.4,0.1c-0.2,0-0.3,0.1-0.3,0.3v0.4c0,0.3,0.3,0.4,0.7,0.4C66.6,12,66.9,11.5,66.9,10.9"/>
	<path class="st0" d="M71.3,7.9c1,0,1.9,0.5,2,1.7h-1.2C72,9,71.7,8.8,71.2,8.8s-0.9,0.3-0.9,0.9v1.3c0,0.6,0.4,0.9,0.9,0.9
		s0.8-0.2,0.9-0.9h1.2c-0.1,1.2-1,1.8-2,1.8c-1.4,0-2.2-1-2.2-2.5C69.1,8.8,69.9,7.9,71.3,7.9"/>
	<polygon class="st0" points="75.8,11.4 76.8,8 78.1,8 75.8,14.4 73.7,14.4 73.7,13.5 74.9,13.5 75.1,12.8 73.4,8 74.7,8 75.7,11.4 
			"/>
	<g class="st1">
		<g>
			<defs>
				<rect id="SVGID_3_" x="20.1" y="6.4" width="3.5" height="6.4"/>
			</defs>
			<clipPath id="SVGID_4_">
				<use xlink:href="#SVGID_3_"  style="overflow:visible;"/>
			</clipPath>
			<polygon class="st2" points="21.2,6.4 23.5,12.7 23.5,12.7 22.4,12.7 22.4,12.7 20.1,6.4 			"/>
		</g>
	</g>
	<polygon class="st0" points="24.7,6.4 22.4,12.7 22.4,12.7 23.5,12.7 23.5,12.7 25.9,6.4 	"/>
	<path class="st0" d="M37,11.9c-1.1,0-1.4-0.1-1.4-0.2c0-0.1,0.1-0.2,0.5-0.2c0,0,0.4,0,0.7,0c1.1,0,1.8-0.8,1.8-1.8v0v0
		c0-0.3-0.1-0.6-0.2-0.9h0.6V8h-2.3h0h0c-1,0-1.9,0.6-1.9,1.7v0v0c0,0.5,0.2,1.4,1,1.4c-0.4,0-1,0.1-1.1,0.5c-0.1,0.6,0.3,0.8,1.1,1
		h-0.7c0,0-0.4,0.2-0.4,0.8c0,1.1,1,1.4,2.2,1.4c1,0,2.2-0.3,2.2-1.5C39.1,12.3,38.3,11.9,37,11.9 M35.9,9.5c0-0.4,0.3-0.7,0.7-0.7
		h0.3c0.5,0,0.7,0.3,0.7,0.7v0.3c0,0.6-0.3,0.8-0.7,0.8h-0.3c-0.4,0-0.7-0.3-0.7-0.8V9.5z M36.8,14c-0.4,0-1.2-0.1-1.2-0.6
		c0-0.5,0.4-0.6,0.4-0.6H37c0.5,0,1.1,0,1.1,0.6C38.1,14,37.3,14,36.8,14"/>
	<path class="st0" d="M40.7,6.4h-1.1v5c0,1,0.4,1.4,1.3,1.4h0.6v-1h-0.8V6.4z"/>
	<path class="st0" d="M42.9,10.7H43h2.8v-0.5c0-0.3,0-0.6-0.1-0.9c-0.1-0.3-0.2-0.5-0.4-0.7c-0.2-0.2-0.4-0.4-0.6-0.5
		c-0.3-0.1-0.6-0.2-0.9-0.2c-0.3,0-0.6,0.1-0.9,0.2c-0.3,0.1-0.5,0.3-0.6,0.5c-0.2,0.2-0.3,0.5-0.4,0.8c-0.1,0.3-0.1,0.6-0.1,1
		c0,0.4,0,0.7,0.1,1c0.1,0.3,0.2,0.6,0.4,0.8c0.2,0.2,0.4,0.4,0.6,0.5c0.3,0.1,0.6,0.2,0.9,0.2c0.3,0,0.5,0,0.7-0.1
		c0.2-0.1,0.4-0.2,0.6-0.3c0.2-0.1,0.3-0.3,0.5-0.5c0.1-0.2,0.2-0.4,0.2-0.7h-1c0,0.3-0.1,0.4-0.3,0.6C44.3,11.9,44.1,12,44,12
		c-0.1,0-0.4,0-0.5-0.1c-0.1,0-0.2-0.1-0.3-0.2c-0.1-0.1-0.2-0.2-0.2-0.3c-0.1-0.1-0.1-0.2-0.1-0.4v-0.2V10.7z M42.9,9.6
		c0-0.5,0.4-0.8,0.8-0.8H44c0.5,0,0.8,0.4,0.8,0.8v0.3h-1.9V9.6z"/>
	<path class="st0" d="M27.2,12.9c0.8,0,1.4-0.5,1.4-1.4v1.3h1V8.1h-1.1v3.1c0,0.4-0.3,0.7-0.7,0.7h-0.3c-0.4,0-0.7-0.3-0.7-0.7V8.1
		h-1.1v3.1C25.6,12.2,26.2,12.9,27.2,12.9"/>
	<path class="st0" d="M32.7,8c-0.8,0-1.4,0.5-1.4,1.4V8.1h-1v4.6h1.1V9.7c0-0.4,0.3-0.7,0.7-0.7h0.3c0.4,0,0.7,0.3,0.7,0.7v3.1h1.1
		V9.7C34.2,8.7,33.6,8,32.7,8"/>
	<path class="st0" d="M7.1,7.1c-1.1,0-2,0.9-2,2c0,1.1,0.9,2,2,2s2-0.9,2-2C9.1,8,8.2,7.1,7.1,7.1"/>
	<polygon class="st0" points="8.1,17.1 13.6,2.1 16.6,2.1 11.1,17.1 	"/>
	<polygon class="st0" points="4.1,15.1 5.1,15.1 6.1,15.1 6.1,14.2 6.1,13.1 5.1,13.1 4.1,13.1 4.1,13.9 	"/>
	<polygon class="st0" points="7.1,3.1 5.7,3.1 4.1,3.1 4.1,1.6 4.1,0.1 3.6,0.1 3.1,0.1 3.1,1.7 3.1,3.1 1.7,3.1 0.1,3.1 0.1,3.6 
		0.1,4.1 1.7,4.1 3.1,4.1 3.1,5.7 3.1,7.1 3.5,7.1 4.1,7.1 4.1,5.6 4.1,4.1 5.6,4.1 7.1,4.1 7.1,3.6 	"/>
</g>
</svg>
